<svg width="31" height="31" viewBox="0 0 31 31" fill="none" xmlns="http://www.w3.org/2000/svg">
<path d="M5.18129 27.0186H25.8193C26.1545 27.0185 26.4839 26.9315 26.7754 26.766C27.0669 26.6005 27.3105 26.3622 27.4824 26.0745C27.6543 25.7867 27.7485 25.4592 27.756 25.1241C27.7634 24.789 27.6838 24.4577 27.5249 24.1626L17.2065 4.99947C16.4745 3.6408 14.5261 3.6408 13.7941 4.99947L3.47569 24.1626C3.31679 24.4577 3.23717 24.789 3.24462 25.1241C3.25207 25.4592 3.34633 25.7867 3.5182 26.0745C3.69006 26.3622 3.93365 26.6005 4.22515 26.766C4.51665 26.9315 4.8461 27.0185 5.18129 27.0186Z" stroke="#EF9309" stroke-width="1.9375" stroke-linecap="round" stroke-linejoin="round"/>
<path d="M15.1526 11.829L15.5001 19.2157L15.8471 11.832C15.8492 11.7848 15.8417 11.7377 15.825 11.6935C15.8083 11.6493 15.7828 11.609 15.75 11.575C15.7171 11.541 15.6777 11.514 15.6342 11.4957C15.5906 11.4775 15.5437 11.4683 15.4965 11.4688C15.4501 11.4692 15.4042 11.479 15.3616 11.4974C15.319 11.5159 15.2806 11.5427 15.2485 11.5763C15.2164 11.6099 15.1914 11.6496 15.175 11.693C15.1585 11.7364 15.1509 11.7826 15.1526 11.829Z" stroke="#EF9309" stroke-width="1.9375" stroke-linecap="round" stroke-linejoin="round"/>
<path d="M15.5 24.0527C15.2605 24.0527 15.0264 23.9817 14.8272 23.8487C14.6281 23.7156 14.4729 23.5265 14.3812 23.3052C14.2896 23.0839 14.2656 22.8405 14.3123 22.6056C14.3591 22.3707 14.4744 22.1549 14.6437 21.9855C14.8131 21.8162 15.0289 21.7009 15.2638 21.6541C15.4987 21.6074 15.7421 21.6314 15.9634 21.723C16.1847 21.8147 16.3738 21.9699 16.5069 22.169C16.6399 22.3682 16.7109 22.6023 16.7109 22.8418C16.7109 23.163 16.5834 23.471 16.3563 23.6981C16.1292 23.9252 15.8212 24.0527 15.5 24.0527Z" fill="#EF9309"/>
</svg>
