<svg width="37" height="35" viewBox="0 0 37 35" fill="none" xmlns="http://www.w3.org/2000/svg">
<path d="M21.5385 8.07692C23.827 8.07692 25.577 9.82692 25.577 12.1154V16.1538H28.2693V12.1154C28.2693 8.88462 25.8462 6.05769 22.75 5.51923C22.2116 2.42308 19.3847 0 16.1539 0H1.34619V32.3077H17.5V29.6154H4.0385V2.69231H16.1539C18.4423 2.69231 20.1923 4.44231 20.1923 6.73077V8.07692H21.5385ZM8.07696 9.42308V12.1154H13.4616V9.42308H8.07696ZM8.07696 17.5H20.1923V14.8077H8.07696V17.5Z" fill="#84A5B5"/>
<g clip-path="url(#clip0_2245_2)">
<path d="M21.2429 32.0629C22.5258 32.9201 24.034 33.3776 25.5769 33.3776C27.6458 33.3776 29.63 32.5557 31.093 31.0927C32.556 29.6298 33.3778 27.6456 33.3778 25.5766C33.3778 24.0338 32.9203 22.5255 32.0631 21.2427C31.206 19.9598 29.9876 18.9599 28.5622 18.3695C27.1367 17.7791 25.5682 17.6246 24.055 17.9256C22.5417 18.2266 21.1518 18.9695 20.0608 20.0605C18.9698 21.1515 18.2268 22.5415 17.9258 24.0547C17.6248 25.568 17.7793 27.1365 18.3697 28.5619C18.9602 29.9874 19.96 31.2057 21.2429 32.0629ZM22.0581 20.3104C23.0997 19.6144 24.3242 19.243 25.5769 19.243C27.2567 19.243 28.8677 19.9103 30.0555 21.0981C31.2432 22.2859 31.9105 23.8968 31.9105 25.5766C31.9105 26.8293 31.5391 28.0539 30.8431 29.0954C30.1472 30.137 29.158 30.9488 28.0007 31.4282C26.8433 31.9075 25.5699 32.033 24.3412 31.7886C23.1126 31.5442 21.9841 30.941 21.0983 30.0552C20.2125 29.1694 19.6093 28.0409 19.3649 26.8123C19.1205 25.5837 19.246 24.3102 19.7253 23.1529C20.2047 21.9955 21.0165 21.0063 22.0581 20.3104Z" fill="#84A5B5" stroke="#84A5B5" stroke-width="0.457692"/>
<path d="M24.4006 27.1222L22.5297 25.1231L22.5299 25.1229L22.5221 25.1155C22.3989 25.0002 22.2364 24.9359 22.0676 24.9357C21.8988 24.9355 21.7362 24.9994 21.6126 25.1145C21.4891 25.2296 21.4139 25.3872 21.4021 25.5556C21.3903 25.724 21.4429 25.8906 21.5493 26.0218L21.5489 26.022L21.5567 26.0303L23.9137 28.5539C23.9138 28.554 23.9139 28.5541 23.914 28.5542C23.9761 28.6211 24.0512 28.6744 24.1348 28.7111C24.2185 28.7478 24.3088 28.7668 24.4002 28.7671L24.4012 28.7671C24.4926 28.7668 24.5829 28.7478 24.6666 28.7111C24.7502 28.6744 24.8254 28.621 24.8875 28.5541C24.8875 28.554 24.8876 28.554 24.8876 28.5539L29.5937 23.5099C29.6584 23.4483 29.7101 23.3743 29.7456 23.2922C29.7819 23.2084 29.8006 23.118 29.8005 23.0266C29.8004 22.9353 29.7815 22.8449 29.745 22.7612C29.7085 22.6774 29.6552 22.6021 29.5883 22.5398C29.5215 22.4775 29.4425 22.4297 29.3564 22.3992C29.2703 22.3687 29.1788 22.3563 29.0877 22.3627C28.9966 22.369 28.9077 22.3941 28.8267 22.4362C28.7474 22.4774 28.6772 22.5342 28.6204 22.603L24.4006 27.1222Z" fill="#84A5B5" stroke="#84A5B5" stroke-width="0.323077"/>
</g>
<defs>
<clipPath id="clip0_2245_2">
<rect width="16.1538" height="16.1538" fill="white" transform="translate(17.5 17.5)"/>
</clipPath>
</defs>
</svg>
