<svg width="35" height="35" viewBox="0 0 35 35" fill="none" xmlns="http://www.w3.org/2000/svg">
<path d="M17.8628 2C15.9645 2 16.0658 2.1239 14.9063 2.43379L15.1363 3.05343L15.3664 3.67307C16.4334 3.3219 16.1225 3.3219 17.8628 3.3219C25.8808 3.3219 32.4037 9.84481 32.4037 17.8628C32.4037 25.8808 25.8808 32.4037 17.8628 32.4037C9.84481 32.4037 3.3219 25.8808 3.3219 17.8628C3.3219 13.5038 5.28029 9.40594 8.6095 6.65441V11.2533H9.9314V4.6438H3.3219V5.9657H7.37088C3.97822 8.9598 2 13.2811 2 17.8628C2 26.6091 9.11645 33.7256 17.8628 33.7256C26.6091 33.7256 33.7256 26.6091 33.7256 17.8628C33.7256 9.11645 26.6091 2 17.8628 2Z" fill="#6E7EAC" stroke="#6E7EAC" stroke-width="1.3"/>
<path d="M24.0938 13.5044L15.6116 21.9866L11.7561 18.131" stroke="#6E7EAC" stroke-width="3" stroke-linecap="round" stroke-linejoin="round"/>
</svg>
