<svg width="25" height="25" viewBox="0 0 25 25" fill="none" xmlns="http://www.w3.org/2000/svg">
<circle cx="12.5" cy="12.5" r="12.5" fill="#D3DBF2"/>
<path d="M18.02 18.32H6.97999C6.79999 18.32 6.67999 18.2 6.67999 18.02V6.97999C6.67999 6.79999 6.79999 6.67999 6.97999 6.67999H18.02C18.2 6.67999 18.32 6.79999 18.32 6.97999V18.02C18.32 18.17 18.17 18.32 18.02 18.32Z" stroke="#6E55D0" stroke-width="0.9" stroke-miterlimit="10" stroke-linecap="round"/>
<path d="M8.57001 15.86H12.32" stroke="#6E55D0" stroke-width="0.9" stroke-miterlimit="10" stroke-linecap="round"/>
<path d="M8.57001 12.86H12.32" stroke="#6E55D0" stroke-width="0.9" stroke-miterlimit="10" stroke-linecap="round"/>
<path d="M14.21 12.44L14.96 13.25" stroke="#6E55D0" stroke-width="0.9" stroke-miterlimit="10" stroke-linecap="round"/>
<path d="M16.43 11.75L14.96 13.25" stroke="#6E55D0" stroke-width="0.9" stroke-miterlimit="10" stroke-linecap="round"/>
<path d="M8.57001 9.86005H12.32" stroke="#6E55D0" stroke-width="0.9" stroke-miterlimit="10" stroke-linecap="round"/>
<path d="M14.21 9.44L14.96 10.25" stroke="#6E55D0" stroke-width="0.9" stroke-miterlimit="10" stroke-linecap="round"/>
<path d="M16.43 8.75L14.96 10.25" stroke="#6E55D0" stroke-width="0.9" stroke-miterlimit="10" stroke-linecap="round"/>
</svg>
