<svg width="35" height="35" viewBox="0 0 35 35" fill="none" xmlns="http://www.w3.org/2000/svg">
<path d="M31.7483 10.0857C31.6647 9.92779 31.5221 9.80929 31.3515 9.75612C31.1809 9.70295 30.9962 9.71941 30.8377 9.80191C30.6792 9.88442 30.5598 10.0263 30.5055 10.1965C30.4512 10.3667 30.4664 10.5515 30.5479 10.7106C32.0002 13.4827 32.5264 16.647 32.0495 19.7399C31.5726 22.8328 30.1175 25.6917 27.8977 27.8975C22.1653 33.6293 12.8371 33.6311 7.10228 27.8969C7.00764 27.8023 6.88706 27.7378 6.7558 27.7118C6.62453 27.6857 6.48848 27.6991 6.36486 27.7504C6.24123 27.8017 6.13559 27.8884 6.0613 27.9997C5.98701 28.1111 5.94741 28.2419 5.94751 28.3757V32.2654C5.94751 32.4448 6.01879 32.6169 6.14566 32.7438C6.27253 32.8706 6.4446 32.9419 6.62403 32.9419C6.80345 32.9419 6.97553 32.8706 7.1024 32.7438C7.22927 32.6169 7.30055 32.4448 7.30055 32.2654V29.9036C10.1599 32.2536 13.7431 33.5441 17.4443 33.5566C21.1454 33.5691 24.7373 32.3029 27.6125 29.9723C30.4876 27.6416 32.4696 24.3894 33.2232 20.7658C33.9768 17.1422 33.4558 13.3695 31.7483 10.0857Z" fill="#495057"/>
<path d="M7.10222 7.10272C12.8364 1.36914 22.1646 1.36974 27.8976 7.10211C27.9922 7.19688 28.1127 7.26144 28.244 7.28764C28.3752 7.31383 28.5113 7.30048 28.635 7.24926C28.7586 7.19804 28.8643 7.11127 28.9386 6.99994C29.0129 6.8886 29.0525 6.75772 29.0524 6.62386V2.73422C29.0524 2.55479 28.9811 2.38272 28.8542 2.25585C28.7274 2.12897 28.5553 2.0577 28.3759 2.0577C28.1964 2.0577 28.0244 2.12897 27.8975 2.25585C27.7706 2.38272 27.6994 2.55479 27.6994 2.73422V5.09603C21.398 -0.0926416 12.0349 0.256435 6.14572 6.14562C3.72139 8.55427 2.13235 11.6762 1.61152 15.0537C1.0907 18.4312 1.66547 21.8868 3.2516 24.9139C3.33515 25.0718 3.47778 25.1903 3.64837 25.2435C3.81896 25.2967 4.00366 25.2802 4.16216 25.1977C4.32066 25.1152 4.44009 24.9733 4.49439 24.8031C4.54869 24.6329 4.53345 24.4481 4.45199 24.289C2.99969 21.5171 2.47344 18.3528 2.95037 15.26C3.42731 12.1672 4.88234 9.30841 7.10222 7.10272Z" fill="#495057"/>
<path d="M8.64062 17.4012V24.8825C8.64207 25.3716 8.83699 25.8402 9.18281 26.186C9.52864 26.5318 9.99726 26.7268 10.4863 26.7282H24.5135C25.0026 26.7268 25.4713 26.5319 25.8171 26.1861C26.163 25.8402 26.3579 25.3716 26.3593 24.8825V17.4012C26.3578 16.9122 26.1629 16.4435 25.8171 16.0977C25.4713 15.7519 25.0026 15.5569 24.5135 15.5555H10.4863C9.99726 15.557 9.52864 15.7519 9.18282 16.0977C8.837 16.4436 8.64208 16.9122 8.64062 17.4012ZM22.4218 19.6964C22.7077 19.6964 22.9872 19.7812 23.2249 19.94C23.4626 20.0988 23.6479 20.3246 23.7573 20.5887C23.8667 20.8529 23.8954 21.1435 23.8396 21.424C23.7838 21.7044 23.6461 21.9619 23.444 22.1641C23.2418 22.3663 22.9842 22.5039 22.7038 22.5597C22.4234 22.6155 22.1328 22.5869 21.8686 22.4775C21.6045 22.368 21.3787 22.1828 21.2199 21.945C21.061 21.7073 20.9762 21.4278 20.9763 21.1419C20.9766 20.7587 21.129 20.3912 21.4001 20.1202C21.6711 19.8492 22.0385 19.6967 22.4218 19.6964ZM17.4999 19.6964C17.7858 19.6964 18.0653 19.7812 18.303 19.94C18.5408 20.0988 18.7261 20.3246 18.8355 20.5887C18.9449 20.8529 18.9735 21.1435 18.9177 21.424C18.8619 21.7044 18.7243 21.9619 18.5221 22.1641C18.3199 22.3663 18.0624 22.5039 17.7819 22.5597C17.5015 22.6155 17.2109 22.5869 16.9467 22.4775C16.6826 22.368 16.4568 22.1828 16.298 21.945C16.1392 21.7073 16.0544 21.4278 16.0544 21.1419C16.0547 20.7587 16.2072 20.3912 16.4782 20.1202C16.7492 19.8492 17.1167 19.6967 17.4999 19.6964ZM12.5781 19.6964C12.864 19.6964 13.1435 19.7812 13.3812 19.94C13.6189 20.0988 13.8042 20.3246 13.9136 20.5887C14.023 20.8529 14.0516 21.1435 13.9958 21.424C13.9401 21.7044 13.8024 21.9619 13.6002 22.1641C13.3981 22.3663 13.1405 22.5039 12.8601 22.5597C12.5797 22.6155 12.289 22.5869 12.0249 22.4775C11.7607 22.368 11.535 22.1828 11.3761 21.945C11.2173 21.7073 11.1325 21.4278 11.1325 21.1419C11.1329 20.7587 11.2853 20.3912 11.5563 20.1202C11.8273 19.8492 12.1948 19.6967 12.5781 19.6964Z" fill="#495057"/>
<path d="M23.4919 14.202V11.7409C23.4919 10.1518 22.8606 8.62772 21.7369 7.50402C20.6132 6.38031 19.0891 5.74902 17.5 5.74902C15.9108 5.74902 14.3868 6.38031 13.2631 7.50402C12.1393 8.62772 11.5081 10.1518 11.5081 11.7409V14.202H12.8611V11.7409C12.8611 10.5106 13.3499 9.33072 14.2198 8.46075C15.0898 7.59079 16.2697 7.10205 17.5 7.10205C18.7303 7.10205 19.9102 7.59079 20.7802 8.46075C21.6502 9.33072 22.1389 10.5106 22.1389 11.7409V14.202H23.4919Z" fill="#495057"/>
</svg>
