<svg width="35" height="36" viewBox="0 0 35 36" fill="none" xmlns="http://www.w3.org/2000/svg">
<g clip-path="url(#clip0_2245_50)">
<path d="M28.9951 18.3779H28.3237V16.9405C28.3237 14.5939 26.3957 12.7602 23.961 12.7602C21.5263 12.7602 19.5983 14.5939 19.5983 16.9405V18.3779H18.9269C17.9185 18.3779 17.0813 19.1683 17.0813 20.1506V28.176C17.0813 29.1583 17.9185 29.9487 18.9269 29.9487H28.9951C30.0035 29.9487 30.8407 29.1583 30.8407 28.176V20.1506C30.8407 19.1683 30.0035 18.3779 28.9951 18.3779ZM23.961 14.6203C25.3018 14.6203 26.3943 15.6757 26.3943 16.9405V18.3779H21.5277V16.9405C21.5277 15.6757 22.6202 14.6203 23.961 14.6203ZM19.0946 28.0083V20.3183H28.8274V28.0083H19.0946ZM23.961 25.936C24.9694 25.936 25.8067 25.1456 25.8067 24.1633C25.8067 23.181 24.9694 22.3906 23.961 22.3906C22.9526 22.3906 22.1153 23.181 22.1153 24.1633C22.1153 25.1456 22.9526 25.936 23.961 25.936Z" fill="#6E7EAC" stroke="#6E7EAC" stroke-width="0.335296"/>
</g>
<path d="M19 33.8784C17 34 15.8097 34.1955 13.6168 33.8784C11.424 33.5613 9.48532 32.2447 7.56511 30.5346C5.64489 28.8246 4.22579 26.6245 3.45963 24.17C2.69348 21.7155 2.60912 19.0989 3.21558 16.6001C3.82204 14.1013 5.0965 11.8145 6.90257 9.98427C8.70864 8.15404 10.9784 6.84933 13.4689 6.20973C15.9593 5.57013 18.5769 5.61972 21.0413 6.3532" stroke="#6E7EAC" stroke-width="2.31111" stroke-linecap="round"/>
<path d="M18.4005 9.79951L22.2351 6.88747L20.055 2.14325" stroke="#6E7EAC" stroke-width="2.31111" stroke-linecap="round"/>
<defs>
<clipPath id="clip0_2245_50">
<rect width="15.6472" height="19.0001" fill="white" transform="translate(16.3528 11.9999)"/>
</clipPath>
</defs>
</svg>
