<svg width="35" height="35" viewBox="0 0 35 35" fill="none" xmlns="http://www.w3.org/2000/svg">
<g clip-path="url(#clip0_2245_41)">
<path d="M20.0001 7.5C22.1251 7.5 23.7501 9.125 23.7501 11.25V15H26.2501V11.25C26.2501 8.25 24.0001 5.625 21.1251 5.125C20.6251 2.25 18.0001 0 15.0001 0H1.25006V30H16.2501V27.5H3.75006V2.5H15.0001C17.1251 2.5 18.7501 4.125 18.7501 6.25V7.5H20.0001ZM7.50006 8.75V11.25H12.5001V8.75H7.50006ZM7.50006 16.25H18.7501V13.75H7.50006V16.25Z" fill="#628E8A"/>
<path d="M28.6365 21.8678H27.9293V20.4344C27.9293 18.2515 26.1361 16.5417 23.8638 16.5417C21.5914 16.5417 19.7982 18.2515 19.7982 20.4344V21.8678H19.091C18.171 21.8678 17.4118 22.5884 17.4118 23.4778V31.0865C17.4118 31.9759 18.171 32.6966 19.091 32.6966H28.6365C29.5565 32.6966 30.3157 31.9759 30.3157 31.0865V23.4778C30.3157 22.5884 29.5565 21.8678 28.6365 21.8678ZM23.8638 18.164C25.171 18.164 26.2413 19.1933 26.2413 20.4344V21.8678H21.4862V20.4344C21.4862 19.1933 22.5565 18.164 23.8638 18.164ZM19.1793 30.9982V23.5661H28.5482V30.9982H19.1793ZM23.8638 28.8922C24.7838 28.8922 25.543 28.1716 25.543 27.2822C25.543 26.3928 24.7838 25.6721 23.8638 25.6721C22.9437 25.6721 22.1845 26.3928 22.1845 27.2822C22.1845 28.1716 22.9437 28.8922 23.8638 28.8922Z" fill="#628E8A" stroke="#628E8A" stroke-width="0.176636"/>
</g>
<defs>
<clipPath id="clip0_2245_41">
<rect width="33.75" height="35" fill="white"/>
</clipPath>
</defs>
</svg>
