<svg width="25" height="25" viewBox="0 0 25 25" fill="none" xmlns="http://www.w3.org/2000/svg">
<circle cx="12.5" cy="12.5" r="12.5" fill="#D3DBF2"/>
<path d="M12.2756 13.4145L12.2757 13.4146C12.3391 13.4634 12.4169 13.4899 12.4969 13.4899C12.5769 13.4899 12.6546 13.4634 12.718 13.4146L12.718 13.4146L14.0582 12.382L18.8137 17.1375H6.18634L10.9417 12.3821L12.2756 13.4145ZM19.0625 7.1375H5.9375C5.6756 7.1375 5.42442 7.24154 5.23923 7.42673C5.05404 7.61192 4.95 7.8631 4.95 8.125V16.875C4.95 17.1369 5.05404 17.3881 5.23923 17.5733C5.42442 17.7585 5.6756 17.8625 5.9375 17.8625H19.0625C19.3244 17.8625 19.5756 17.7585 19.7608 17.5733C19.946 17.3881 20.05 17.1369 20.05 16.875V8.125C20.05 7.8631 19.946 7.61192 19.7608 7.42673C19.5756 7.24154 19.3244 7.1375 19.0625 7.1375ZM12.5 12.6681L6.28393 7.8625H18.7161L12.5 12.6681ZM5.675 16.6261V8.30809L10.3651 11.933L5.675 16.6261ZM19.325 8.30809V16.6261L14.6349 11.933L19.325 8.30809Z" fill="#6E55D0" stroke="#6E55D0" stroke-width="0.1"/>
</svg>
