<svg width="21" height="21" viewBox="0 0 21 21" fill="none" xmlns="http://www.w3.org/2000/svg">
<path d="M10.5 18.3422C6.16877 18.3422 2.65784 14.8313 2.65784 10.5C2.65784 6.16877 6.16877 2.65784 10.5 2.65784C14.8313 2.65784 18.3422 6.16877 18.3422 10.5C18.3422 14.8313 14.8313 18.3422 10.5 18.3422ZM11 10.5C7.16094 10.5 9 10.5 3.51096 10.5C0.315378 10.5 7.16094 10.5 11 10.5C14.8391 10.5 11.5 10.5 17.4891 10.5C18 10.5 14.8391 10.5 11 10.5Z" fill="#6E55D0"/>
<path d="M10.3359 14.9953L9.74524 14.3718L13.5843 10.5L9.74524 6.62808L10.3359 6.00464L14.8312 10.5L10.3359 14.9953Z" fill="white"/>
<path d="M14.2078 10.9594H6.33276V10.0406H14.2078V10.9594Z" fill="white"/>
</svg>
