<svg width="35" height="35" viewBox="0 0 35 35" fill="none" xmlns="http://www.w3.org/2000/svg">
<path d="M25.5752 33.1498C27.5842 33.1498 29.5109 32.3517 30.9315 30.9311C32.3521 29.5105 33.1501 27.5838 33.1501 25.5748C33.1501 23.5658 32.3521 21.6391 30.9315 20.2185C29.5109 18.798 27.5842 17.9999 25.5752 17.9999" stroke="#628E8A" stroke-width="1.8"/>
<path d="M25.575 33.1498C23.566 33.1498 21.6393 32.3517 20.2187 30.9311C18.7981 29.5105 18.0001 27.5838 18.0001 25.5748C18.0001 23.5658 18.7981 21.6391 20.2187 20.2185C21.6393 18.798 23.566 17.9999 25.575 17.9999" stroke="#628E8A" stroke-width="1.8" stroke-dasharray="1.78 1.78"/>
<path d="M24.3242 27.4271L22.3747 25.3439L22.375 25.3437L22.3668 25.336C22.2384 25.2158 22.0691 25.1489 21.8932 25.1487C21.7172 25.1485 21.5478 25.215 21.4191 25.335C21.2904 25.4549 21.212 25.6192 21.1997 25.7946C21.1874 25.9701 21.2422 26.1437 21.353 26.2804L21.3527 26.2806L21.3608 26.2893L23.817 28.919C23.817 28.9191 23.8171 28.9192 23.8172 28.9193C23.8819 28.989 23.9602 29.0446 24.0473 29.0828C24.1345 29.121 24.2286 29.1409 24.3238 29.1412L24.3249 29.1412C24.4201 29.1409 24.5143 29.121 24.6015 29.0828C24.6886 29.0446 24.7669 28.9889 24.8316 28.9192C24.8317 28.9192 24.8317 28.9191 24.8318 28.919L29.7358 23.6629C29.8032 23.5987 29.8571 23.5215 29.8941 23.436C29.9319 23.3487 29.9514 23.2545 29.9513 23.1593C29.9512 23.0641 29.9315 22.9699 29.8934 22.8827C29.8554 22.7954 29.7998 22.7169 29.7302 22.652C29.6605 22.5871 29.5783 22.5372 29.4885 22.5055C29.3988 22.4737 29.3035 22.4608 29.2085 22.4674C29.1135 22.474 29.021 22.5001 28.9365 22.544C28.8539 22.587 28.7808 22.6461 28.7215 22.7179L24.3242 27.4271Z" fill="#628E8A" stroke="#628E8A" stroke-width="0.336664"/>
<path d="M21.5385 8.07692C23.827 8.07692 25.577 9.82692 25.577 12.1154V16.1538H28.2693V12.1154C28.2693 8.88462 25.8462 6.05769 22.75 5.51923C22.2116 2.42308 19.3847 0 16.1539 0H1.34619V32.3077H17.5V29.6154H4.0385V2.69231H16.1539C18.4423 2.69231 20.1923 4.44231 20.1923 6.73077V8.07692H21.5385ZM8.07696 9.42308V12.1154H13.4616V9.42308H8.07696ZM8.07696 17.5H20.1923V14.8077H8.07696V17.5Z" fill="#628E8A"/>
</svg>
