<svg width="433" height="76" viewBox="0 0 433 76" fill="none" xmlns="http://www.w3.org/2000/svg">
<path d="M189.885 23.4885L180.935 56.8152H173.919L168.477 31.8089L162.675 56.8152H155.614L147.204 23.4885H153.32L159.167 52.0928L165.464 23.4885H171.58L177.427 52.0928L183.768 23.4885H189.885ZM208.235 31.1343C209.974 31.1343 211.548 31.4791 212.957 32.1687C214.367 32.8284 215.566 33.7429 216.555 34.9122C217.545 36.0816 218.309 37.4458 218.849 39.005C219.389 40.5641 219.659 42.2432 219.659 44.0422C219.659 45.8412 219.374 47.5353 218.804 49.1244C218.234 50.6835 217.425 52.0478 216.375 53.2171C215.356 54.3565 214.127 55.256 212.687 55.9157C211.278 56.5453 209.704 56.8601 207.965 56.8601C206.196 56.8601 204.577 56.5303 203.108 55.8707C201.669 55.211 200.439 54.2965 199.42 53.1272C198.43 51.9578 197.666 50.5936 197.126 49.0344C196.586 47.4753 196.317 45.7812 196.317 43.9522C196.317 42.1233 196.601 40.4142 197.171 38.8251C197.771 37.2359 198.58 35.8867 199.6 34.7773C200.649 33.6379 201.908 32.7534 203.378 32.1238C204.847 31.4641 206.466 31.1343 208.235 31.1343ZM207.875 52.5875C208.775 52.5875 209.584 52.3776 210.304 51.9578C211.053 51.5081 211.683 50.9084 212.193 50.1588C212.732 49.3793 213.152 48.4648 213.452 47.4153C213.782 46.3659 213.947 45.2415 213.947 44.0422C213.947 42.8429 213.797 41.7185 213.497 40.6691C213.227 39.6196 212.837 38.7051 212.328 37.9256C211.848 37.116 211.248 36.4714 210.529 35.9916C209.809 35.5119 209 35.272 208.1 35.272C207.201 35.272 206.376 35.4969 205.626 35.9467C204.877 36.3964 204.232 37.0111 203.692 37.7906C203.183 38.5402 202.778 39.4397 202.478 40.4892C202.208 41.5086 202.073 42.618 202.073 43.8173C202.073 45.0167 202.193 46.156 202.433 47.2354C202.703 48.2849 203.093 49.1994 203.603 49.9789C204.112 50.7585 204.712 51.3881 205.402 51.8679C206.121 52.3476 206.946 52.5875 207.875 52.5875ZM240.977 36.7562C240.137 36.5163 239.118 36.3814 237.919 36.3514C236.839 36.3514 235.76 36.4864 234.68 36.7562C233.631 36.9961 232.791 37.4159 232.162 38.0155V47.6402V47.7302V56.6353H226.72V31.2692H231.577L232.162 33.8778C232.612 33.428 233.076 33.0233 233.556 32.6635C234.066 32.3037 234.65 32.0188 235.31 31.8089C235.97 31.5691 236.749 31.3892 237.649 31.2692C238.548 31.1493 239.658 31.0893 240.977 31.0893V36.7562ZM261.486 56.6353L252.266 44.4919V56.6353H246.779V21.6895H252.266V43.3676L260.406 31.2692H266.523L257.618 43.9073L267.692 56.6353H261.486ZM291.169 56.6353H285.772V23.4885H295.307C296.716 23.4885 298.11 23.7134 299.49 24.1632C300.869 24.6129 302.098 25.2875 303.178 26.187C304.287 27.0865 305.172 28.1809 305.831 29.4702C306.521 30.7295 306.866 32.1538 306.866 33.7429C306.866 35.422 306.581 36.9511 306.011 38.3303C305.441 39.6796 304.647 40.819 303.627 41.7485C302.608 42.6779 301.379 43.3976 299.939 43.9073C298.5 44.417 296.911 44.6719 295.172 44.6719H291.169V56.6353ZM291.169 27.5813V40.714H296.116C296.776 40.714 297.421 40.6091 298.05 40.3992C298.71 40.1593 299.31 39.7845 299.849 39.2748C300.389 38.7651 300.824 38.0605 301.154 37.161C301.484 36.2315 301.648 35.0921 301.648 33.7429C301.648 33.2032 301.573 32.5885 301.424 31.8989C301.274 31.1793 300.959 30.5047 300.479 29.875C300.029 29.2154 299.385 28.6757 298.545 28.2559C297.706 27.8061 296.596 27.5813 295.217 27.5813H291.169ZM323.371 30.9994C325.41 30.9994 327.209 31.4192 328.768 32.2587C330.328 33.0682 331.602 34.1626 332.591 35.5419C333.611 36.8911 334.33 38.4653 334.75 40.2643C335.2 42.0333 335.29 43.8773 335.02 45.7962H317.39C317.39 46.7557 317.57 47.6402 317.929 48.4498C318.289 49.2593 318.769 49.9639 319.369 50.5636C319.998 51.1333 320.733 51.583 321.572 51.9129C322.442 52.2427 323.371 52.4076 324.361 52.4076C324.691 52.4076 325.096 52.3776 325.575 52.3176C326.085 52.2277 326.61 52.0928 327.149 51.9129C327.719 51.703 328.274 51.4481 328.813 51.1483C329.383 50.8484 329.878 50.4886 330.298 50.0689L332.277 53.0822C331.287 54.3115 330.133 55.241 328.813 55.8707C327.494 56.5003 325.815 56.8152 323.776 56.8152C322.127 56.8152 320.583 56.4853 319.144 55.8257C317.705 55.1361 316.475 54.2066 315.456 53.0372C314.436 51.8679 313.627 50.5036 313.027 48.9445C312.427 47.3854 312.128 45.7063 312.128 43.9073C312.128 42.1382 312.427 40.4742 313.027 38.915C313.627 37.3259 314.421 35.9467 315.411 34.7773C316.43 33.608 317.63 32.6935 319.009 32.0338C320.388 31.3442 321.842 30.9994 323.371 30.9994ZM329.983 41.8384C329.983 41.0289 329.833 40.2343 329.533 39.4547C329.233 38.6752 328.813 37.9705 328.274 37.3409C327.764 36.7112 327.134 36.2165 326.385 35.8567C325.635 35.4669 324.826 35.257 323.956 35.2271C323.027 35.2271 322.172 35.407 321.393 35.7668C320.613 36.1266 319.938 36.6063 319.369 37.206C318.799 37.8056 318.349 38.5252 318.019 39.3648C317.72 40.1743 317.57 40.9989 317.57 41.8384H329.983ZM356.878 36.7562C356.038 36.5163 355.019 36.3814 353.82 36.3514C352.74 36.3514 351.661 36.4864 350.581 36.7562C349.532 36.9961 348.693 37.4159 348.063 38.0155V47.6402V47.7302V56.6353H342.621V31.2692H347.478L348.063 33.8778C348.513 33.428 348.977 33.0233 349.457 32.6635C349.967 32.3037 350.551 32.0188 351.211 31.8089C351.871 31.5691 352.65 31.3892 353.55 31.2692C354.449 31.1493 355.559 31.0893 356.878 31.0893V36.7562ZM396.186 55.7807V56.6353H390.789V42.8279C390.789 41.8084 390.774 40.849 390.744 39.9495C390.744 39.02 390.654 38.1954 390.474 37.4758C390.295 36.7562 389.995 36.2015 389.575 35.8117C389.185 35.392 388.571 35.1821 387.731 35.1821C387.581 35.1821 387.311 35.2121 386.921 35.272C386.562 35.302 386.127 35.392 385.617 35.5419C385.107 35.6618 384.538 35.8717 383.908 36.1715C383.308 36.4714 382.709 36.8612 382.109 37.3409C382.109 38.5102 382.109 39.4397 382.109 40.1294C382.139 40.819 382.154 41.5686 382.154 42.3781V56.6353H376.712V42.8279C376.712 41.8084 376.712 40.849 376.712 39.9495C376.712 39.02 376.622 38.1954 376.442 37.4758C376.262 36.7562 375.962 36.2015 375.543 35.8117C375.123 35.392 374.508 35.1821 373.699 35.1821C373.429 35.1821 373.054 35.2271 372.574 35.317C372.095 35.377 371.585 35.4969 371.045 35.6768C370.535 35.8567 370.011 36.0816 369.471 36.3514C368.961 36.6213 368.527 36.9361 368.167 37.2959V56.6353H362.68V31.2692H367.582L368.167 33.8778C368.916 33.1882 369.876 32.5585 371.045 31.9888C372.245 31.3892 373.489 31.0893 374.778 31.0893C376.217 31.0893 377.417 31.4042 378.376 32.0338C379.336 32.6635 380.295 33.593 381.255 34.8223C381.764 34.2526 382.334 33.7279 382.964 33.2481C383.593 32.7684 384.238 32.3636 384.898 32.0338C385.587 31.704 386.262 31.4491 386.921 31.2692C387.581 31.0893 388.211 30.9994 388.81 30.9994C389.83 30.9994 390.789 31.2093 391.689 31.629C392.588 32.0188 393.368 32.5885 394.028 33.3381C394.717 34.0877 395.242 34.9872 395.602 36.0366C395.991 37.056 396.186 38.1654 396.186 39.3648V42.3781V55.7807ZM409.364 56.6353H403.877V31.2692H409.364V56.6353ZM409.859 23.1737C409.859 24.0732 409.544 24.8378 408.914 25.4674C408.285 26.0671 407.52 26.3669 406.621 26.3669C405.721 26.3669 404.956 26.0521 404.327 25.4225C403.727 24.7928 403.427 24.0432 403.427 23.1737C403.427 22.2742 403.742 21.5096 404.372 20.88C405.001 20.2503 405.751 19.9355 406.621 19.9355C407.52 19.9355 408.285 20.2503 408.914 20.88C409.544 21.5096 409.859 22.2742 409.859 23.1737ZM424.251 48.9445C424.251 49.9639 424.386 50.7585 424.656 51.3282C424.925 51.8979 425.3 52.3326 425.78 52.6325C426.29 52.9323 426.844 53.1272 427.444 53.2171C428.074 53.2771 428.733 53.3071 429.423 53.3071V56.6353C429.033 56.6952 428.643 56.7402 428.254 56.7702C427.924 56.8002 427.519 56.8152 427.039 56.8152C426.59 56.8451 426.14 56.8601 425.69 56.8601C425.24 56.8601 424.776 56.8451 424.296 56.8152C423.846 56.7852 423.456 56.7402 423.126 56.6802C422.107 56.5003 421.312 56.0656 420.743 55.3759C420.173 54.6563 419.738 53.8768 419.438 53.0372C419.169 52.1677 418.989 51.3282 418.899 50.5186C418.839 49.7091 418.809 49.0794 418.809 48.6297V34.9572H415.481V31.2692H418.809V24.0732H424.251V31.2692H428.299V34.9572H424.251V48.9445Z" fill="#495057"/>
<path d="M96.784 14.8898L87.0721 33.1018L91.3897 40.2978L96.4269 48.2134L123.772 0H37.2246L80.0329 75.3798L89.339 58.6287L63.2818 14.8898H96.784Z" fill="#6E55D0"/>
<path d="M0 0H17.6817L53.0451 59.5594L43.7389 75.3798L0 0Z" fill="#6E55D0"/>
</svg>
