<svg width="35" height="35" viewBox="0 0 35 35" fill="none" xmlns="http://www.w3.org/2000/svg">
<path d="M22.625 9.25C24.9625 9.25 26.75 11.0375 26.75 13.375V20.25H29.5V13.375C29.5 10.075 27.025 7.1875 23.8625 6.6375C23.3125 3.475 20.425 1 17.125 1H2V34H21.25V31.25H4.75V3.75H17.125C19.4625 3.75 21.25 5.5375 21.25 7.875V9.25H22.625ZM8.875 10.625V13.375H14.375V10.625H8.875ZM29.5 27.125V23H26.75V27.125H22.625V29.875H26.75V34H29.5V29.875H33.625V27.125H29.5ZM8.875 18.875H21.25V16.125H8.875V18.875Z" fill="#84A5B5"/>
</svg>
