<svg width="25" height="25" viewBox="0 0 25 25" fill="none" xmlns="http://www.w3.org/2000/svg">
<circle cx="12.5" cy="12.5" r="12.5" fill="#D3DBF2"/>
<g clip-path="url(#clip0_2599_132)">
<path d="M14.8586 14.2128C14.6593 14.2128 14.5326 14.298 14.4611 14.3695L13.6623 15.1688C13.656 15.1751 13.6218 15.1919 13.5429 15.1919C13.1028 15.1919 12.1684 14.7023 11.2334 13.7669C9.97668 12.5106 9.69956 11.47 9.83155 11.338L10.6308 10.5392C11.1577 10.0124 10.2254 8.92281 9.62279 8.3202C9.34935 8.04676 8.41072 7.15546 7.8018 7.15546C7.60251 7.15546 7.47578 7.24064 7.40426 7.31216L5.80571 8.91071C5.32614 9.39028 5.49704 10.3215 6.31472 11.6782C7.0204 12.8498 8.13623 14.2222 9.45715 15.5432C11.4075 17.4935 13.992 19.4617 15.3692 19.4617H15.3697C15.7441 19.4617 15.9681 19.3166 16.0896 19.1946L17.6881 17.596C18.215 17.0697 17.2827 15.9801 16.6801 15.3775C16.4067 15.1041 15.468 14.2128 14.8586 14.2128ZM15.5185 18.6235C15.507 18.6351 15.4628 18.654 15.3692 18.654C14.5652 18.654 12.4197 17.3636 10.0282 14.9721C8.75252 13.6964 7.67928 12.3786 7.0062 11.2618C6.25425 10.0129 6.3184 9.54015 6.37677 9.48178L7.87174 7.98681C8.07103 8.06832 8.51747 8.357 9.05172 8.89126C9.58651 9.42604 9.87467 9.87248 9.95617 10.0712L9.26048 10.7669C8.51537 11.5131 9.46504 13.1411 10.6624 14.3379C11.6867 15.3628 12.7905 15.9996 13.5429 15.9996C13.8984 15.9996 14.1145 15.8587 14.2334 15.7398L14.9291 15.0441C15.1278 15.1256 15.5743 15.4138 16.109 15.9486C16.6433 16.4834 16.932 16.9293 17.0135 17.1286L15.5185 18.6235Z" fill="#6E55D0"/>
<path d="M17.0975 7.90233C16.2183 7.0226 15.0478 6.5383 13.8021 6.5383C13.8016 6.5383 13.801 6.5383 13.801 6.5383C13.5781 6.5383 13.3972 6.71919 13.3972 6.94215C13.3972 7.1651 13.5781 7.34599 13.801 7.34599C13.8016 7.34599 13.8016 7.34599 13.8021 7.34599C14.8322 7.34599 15.7998 7.74616 16.5265 8.4734C17.2537 9.20063 17.6539 10.1682 17.6539 11.1988C17.6539 11.4218 17.8348 11.6027 18.0577 11.6027C18.2807 11.6027 18.4616 11.4218 18.4616 11.1988C18.4621 9.95259 17.9773 8.78206 17.0975 7.90233Z" fill="#6E55D0"/>
<path d="M13.2683 8.94282C13.2689 8.94282 13.2689 8.94282 13.2694 8.94282C14.015 8.94282 14.7149 9.23256 15.2413 9.7584C15.7671 10.2848 16.0569 10.9852 16.0569 11.7314C16.0569 11.9543 16.2378 12.1352 16.4607 12.1352C16.6837 12.1352 16.8646 11.9543 16.8646 11.7314C16.8651 10.7696 16.4912 9.8662 15.8124 9.18734C15.1335 8.50901 14.2306 8.13513 13.2694 8.13513C13.2689 8.13513 13.2683 8.13513 13.2683 8.13513C13.0454 8.13513 12.8645 8.31602 12.8645 8.53898C12.8645 8.76193 13.0454 8.94282 13.2683 8.94282Z" fill="#6E55D0"/>
<path d="M12.7354 10.5397C12.7359 10.5397 12.7359 10.5397 12.7365 10.5397C13.1971 10.5397 13.6304 10.719 13.9554 11.044C14.2809 11.3695 14.4597 11.8028 14.4597 12.264C14.4597 12.4869 14.6405 12.6678 14.8635 12.6678C15.0865 12.6678 15.2673 12.4869 15.2673 12.264C15.2679 11.5872 15.0044 10.9509 14.5264 10.4729C14.049 9.99495 13.4132 9.73203 12.7365 9.73203C12.7359 9.73203 12.7354 9.73203 12.7354 9.73203C12.5125 9.73203 12.3316 9.91291 12.3316 10.1359C12.3316 10.3588 12.5125 10.5397 12.7354 10.5397Z" fill="#6E55D0"/>
</g>
<defs>
<clipPath id="clip0_2599_132">
<rect width="14" height="14" fill="white" transform="translate(5 6)"/>
</clipPath>
</defs>
</svg>
