<svg width="35" height="35" viewBox="0 0 35 35" fill="none" xmlns="http://www.w3.org/2000/svg">
<path d="M20.4434 7.77785C22.6471 7.77785 24.3323 9.46305 24.3323 11.6668V15.5557H26.9249V11.6668C26.9249 8.55563 24.5916 5.83338 21.6101 5.31486C21.0915 2.33335 18.3693 0 15.2582 0H0.998779V31.1114H16.5545V28.5188H3.59139V2.59262H15.2582C17.4619 2.59262 19.1471 4.27782 19.1471 6.48154V7.77785H20.4434ZM7.48032 9.07415V11.6668H12.6655V9.07415H7.48032ZM7.48032 16.852H19.1471V14.2594H7.48032V16.852Z" fill="#8E6B61"/>
<path d="M22.0056 23.3917L23.892 25.2781L22.0056 27.1644L22.0056 27.1644C21.705 27.4651 21.705 27.9522 22.0056 28.2528C22.1559 28.4031 22.353 28.4783 22.5498 28.4783C22.7466 28.4783 22.9437 28.4031 23.094 28.2529L23.094 28.2529L24.9804 26.3665L26.8668 28.2528C27.017 28.4031 27.2142 28.4783 27.411 28.4783C27.6077 28.4783 27.8049 28.4031 27.9552 28.2529L27.9552 28.2529C28.2558 27.9522 28.2558 27.4651 27.9552 27.1645L26.0688 25.2781L27.9551 23.3917C27.9551 23.3917 27.9551 23.3917 27.9552 23.3917C28.2558 23.0911 28.2559 22.6039 27.9552 22.3032C27.6545 22.0026 27.1674 22.0026 26.8668 22.3032L24.9804 24.1896L23.094 22.3032L23.094 22.3032C22.7933 22.0026 22.3062 22.0025 22.0056 22.3033C21.705 22.6039 21.7049 23.091 22.0056 23.3917ZM24.9804 17.8243C20.87 17.8243 17.5266 21.168 17.5266 25.2781C17.5266 29.3881 20.87 32.7318 24.9804 32.7318C29.0908 32.7318 32.4342 29.3881 32.4342 25.2781C32.4342 21.168 29.0908 17.8243 24.9804 17.8243ZM24.9804 31.1925C21.7195 31.1925 19.066 28.5392 19.066 25.2781C19.066 22.0169 21.7195 19.3637 24.9804 19.3637C28.2413 19.3637 30.8948 22.0169 30.8948 25.2781C30.8948 28.5392 28.2413 31.1925 24.9804 31.1925Z" fill="#8E6B61" stroke="#8E6B61" stroke-width="0.324077"/>
</svg>
