<svg width="26" height="26" viewBox="0 0 26 26" fill="none" xmlns="http://www.w3.org/2000/svg">
<path d="M11.2532 19.1344C6.9063 19.1344 3.3313 15.6 3.3313 11.2125C3.3313 6.86562 6.86567 3.29062 11.2532 3.29062C15.6407 3.29062 19.175 6.82499 19.175 11.2125C19.1344 15.6 15.6 19.1344 11.2532 19.1344ZM11.2532 4.46874C7.51567 4.46874 4.4688 7.51562 4.4688 11.2531C4.4688 14.9906 7.51567 18.0375 11.2532 18.0375C14.9907 18.0375 18.0375 14.9906 18.0375 11.2531C17.9969 7.51562 14.95 4.46874 11.2532 4.46874Z" fill="#134563"/>
<path d="M21.8156 22.6687L16.2906 17.1843L17.1844 16.2906L22.6688 21.8156L21.8156 22.6687Z" fill="#134563"/>
</svg>
