<svg width="39" height="38" viewBox="0 0 39 38" fill="none" xmlns="http://www.w3.org/2000/svg">
<path d="M22.7475 20.816C18.9347 20.816 15.816 23.9347 15.816 27.7475C15.816 31.5603 18.9347 34.6791 22.7475 34.6791C26.5603 34.6791 29.6791 31.5603 29.6791 27.7475C29.6791 23.9347 26.5603 20.816 22.7475 20.816ZM17.5335 27.7475C17.5335 24.8802 19.8802 22.5335 22.7475 22.5335C23.85 22.5335 24.8946 22.8788 25.7741 23.516L18.516 30.7741C17.8788 29.8946 17.5335 28.85 17.5335 27.7475ZM22.7475 32.9615C21.645 32.9615 20.6004 32.6162 19.7209 31.979L26.979 24.7209C27.6162 25.6004 27.9615 26.645 27.9615 27.7475C27.9615 30.6148 25.6148 32.9615 22.7475 32.9615Z" fill="#8E6B61" stroke="#8E6B61" stroke-width="0.368046"/>
<path d="M19.4434 10.7778C21.6471 10.7778 23.3323 12.463 23.3323 14.6668V18.5557H25.9249V14.6668C25.9249 11.5556 23.5916 8.83338 20.6101 8.31486C20.0915 5.33335 17.3693 3 14.2582 3H-0.0012207V34.1114H15.5545V31.5188H2.59139V5.59262H14.2582C16.4619 5.59262 18.1471 7.27782 18.1471 9.48154V10.7778H19.4434ZM6.48032 12.0742V14.6668H11.6655V12.0742H6.48032ZM6.48032 19.852H18.1471V17.2594H6.48032V19.852Z" fill="#8E6B61"/>
</svg>
