<svg width="25" height="25" viewBox="0 0 25 25" fill="none" xmlns="http://www.w3.org/2000/svg">
<circle cx="12.5" cy="12.5" r="12.5" fill="#D3DBF2"/>
<path d="M16.6674 12.5956C16.6179 12.5464 16.5592 12.5075 16.4946 12.481C16.43 12.4545 16.3608 12.441 16.291 12.4413C16.2212 12.4415 16.1522 12.4555 16.0878 12.4824C16.0234 12.5094 15.9649 12.5487 15.9157 12.5983C15.8665 12.6478 15.8276 12.7065 15.8011 12.7711C15.7746 12.8357 15.7611 12.9049 15.7614 12.9747C15.7616 13.0445 15.7756 13.1136 15.8026 13.178C15.8295 13.2423 15.8689 13.3008 15.9184 13.35C16.3679 13.7948 16.7247 14.3243 16.9682 14.9079C17.2117 15.4915 17.337 16.1176 17.3368 16.75C17.3368 17.3981 15.4721 18.3437 12.5556 18.3437C9.63901 18.3437 7.77432 17.3981 7.77432 16.75C7.77348 16.1218 7.89644 15.4996 8.13618 14.9189C8.37592 14.3383 8.72773 13.8106 9.17151 13.3659C9.27046 13.2664 9.326 13.1317 9.326 12.9914C9.326 12.851 9.27046 12.7164 9.17151 12.6169C9.07198 12.5179 8.93733 12.4624 8.79698 12.4624C8.65663 12.4624 8.52199 12.5179 8.42245 12.6169C7.87797 13.1583 7.4464 13.8024 7.15276 14.5119C6.85911 15.2214 6.70924 15.9821 6.71182 16.75C6.71182 18.4766 9.72401 19.4062 12.5556 19.4062C15.3871 19.4062 18.3993 18.4766 18.3993 16.75C18.4014 15.9772 18.2492 15.2117 17.9519 14.4983C17.6545 13.785 17.2178 13.1382 16.6674 12.5956Z" fill="#6E55D0"/>
<path d="M12.5555 13.0313C13.291 13.0313 14.01 12.8132 14.6216 12.4045C15.2331 11.9959 15.7098 11.4151 15.9912 10.7356C16.2727 10.0561 16.3463 9.30838 16.2028 8.58701C16.0593 7.86564 15.7052 7.20302 15.1851 6.68295C14.665 6.16287 14.0024 5.8087 13.281 5.66521C12.5597 5.52172 11.812 5.59536 11.1324 5.87682C10.4529 6.15829 9.87214 6.63493 9.46351 7.24647C9.05489 7.85802 8.83679 8.577 8.83679 9.3125C8.83679 10.2988 9.22859 11.2447 9.92599 11.9421C10.6234 12.6395 11.5693 13.0313 12.5555 13.0313ZM12.5555 6.65625C13.0809 6.65625 13.5945 6.81204 14.0313 7.10391C14.4681 7.39578 14.8086 7.81063 15.0096 8.296C15.2106 8.78137 15.2632 9.31545 15.1608 9.83071C15.0583 10.346 14.8053 10.8193 14.4338 11.1908C14.0623 11.5622 13.589 11.8152 13.0738 11.9177C12.5585 12.0202 12.0244 11.9676 11.539 11.7666C11.0537 11.5655 10.6388 11.2251 10.347 10.7882C10.0551 10.3514 9.89929 9.83786 9.89929 9.3125C9.89929 8.60802 10.1791 7.93239 10.6773 7.43425C11.1754 6.93611 11.8511 6.65625 12.5555 6.65625Z" fill="#6E55D0"/>
</svg>
