<svg width="25" height="25" viewBox="0 0 25 25" fill="none" xmlns="http://www.w3.org/2000/svg">
<circle cx="12.5" cy="12.5" r="12.5" fill="#D3DBF2"/>
<g clip-path="url(#clip0_2599_133)">
<path d="M12 15.25C13.5533 15.25 14.8125 13.9908 14.8125 12.4375C14.8125 10.8842 13.5533 9.625 12 9.625C10.4467 9.625 9.1875 10.8842 9.1875 12.4375C9.1875 13.9908 10.4467 15.25 12 15.25Z" stroke="#6E55D0" stroke-width="0.84375" stroke-linecap="round" stroke-linejoin="round"/>
<path d="M7.48593 18.0203C7.90915 17.1867 8.55493 16.4866 9.3517 15.9975C10.1485 15.5084 11.0651 15.2496 12 15.2496C12.9349 15.2496 13.8515 15.5084 14.6483 15.9975C15.4451 16.4866 16.0908 17.1867 16.5141 18.0203" stroke="#6E55D0" stroke-width="0.84375" stroke-linecap="round" stroke-linejoin="round"/>
<path d="M17.0625 9.0625C17.6838 9.0625 18.1875 8.55882 18.1875 7.9375C18.1875 7.31618 17.6838 6.8125 17.0625 6.8125C16.4412 6.8125 15.9375 7.31618 15.9375 7.9375C15.9375 8.55882 16.4412 9.0625 17.0625 9.0625Z" stroke="#6E55D0" stroke-width="0.84375" stroke-linecap="round" stroke-linejoin="round"/>
<path d="M17.0625 6.8125V5.96875" stroke="#6E55D0" stroke-width="0.84375" stroke-linecap="round" stroke-linejoin="round"/>
<path d="M16.0852 7.375L15.3609 6.95312" stroke="#6E55D0" stroke-width="0.84375" stroke-linecap="round" stroke-linejoin="round"/>
<path d="M16.0852 8.5L15.3609 8.92188" stroke="#6E55D0" stroke-width="0.84375" stroke-linecap="round" stroke-linejoin="round"/>
<path d="M17.0625 9.0625V9.90625" stroke="#6E55D0" stroke-width="0.84375" stroke-linecap="round" stroke-linejoin="round"/>
<path d="M18.0398 8.5L18.764 8.92188" stroke="#6E55D0" stroke-width="0.84375" stroke-linecap="round" stroke-linejoin="round"/>
<path d="M18.0398 7.375L18.764 6.95312" stroke="#6E55D0" stroke-width="0.84375" stroke-linecap="round" stroke-linejoin="round"/>
<path d="M18.7008 12.1914C18.7349 12.4596 18.7513 12.7297 18.75 13C18.75 14.3351 18.3541 15.6401 17.6124 16.7501C16.8707 17.8602 15.8165 18.7253 14.5831 19.2362C13.3497 19.7471 11.9925 19.8808 10.6831 19.6203C9.37377 19.3599 8.17104 18.717 7.22703 17.773C6.28303 16.829 5.64015 15.6263 5.3797 14.3169C5.11925 13.0075 5.25292 11.6503 5.76382 10.4169C6.27471 9.18352 7.13987 8.12931 8.2499 7.38761C9.35994 6.64591 10.665 6.25003 12 6.25003C12.2089 6.24871 12.4178 6.2581 12.6258 6.27816" stroke="#6E55D0" stroke-width="0.84375" stroke-linecap="round" stroke-linejoin="round"/>
</g>
<defs>
<clipPath id="clip0_2599_133">
<rect width="18" height="18" fill="white" transform="translate(3 4)"/>
</clipPath>
</defs>
</svg>
