<svg width="28" height="28" viewBox="0 0 28 28" fill="none" xmlns="http://www.w3.org/2000/svg">
<circle cx="14" cy="14" r="14" fill="#F2F0F9"/>
<path d="M18.8486 13.8155C18.7865 13.7538 18.7129 13.705 18.632 13.6718C18.551 13.6386 18.4644 13.6217 18.3769 13.622C18.2894 13.6223 18.2028 13.6399 18.1221 13.6736C18.0414 13.7074 17.9682 13.7567 17.9065 13.8188C17.8449 13.8809 17.7961 13.9545 17.7629 14.0354C17.7297 14.1164 17.7128 14.203 17.7131 14.2905C17.7134 14.378 17.7309 14.4646 17.7647 14.5453C17.7985 14.626 17.8478 14.6992 17.9099 14.7609C18.4732 15.3182 18.9204 15.9818 19.2255 16.7132C19.5306 17.4446 19.6877 18.2292 19.6875 19.0217C19.6875 19.8339 17.3506 21.019 13.6956 21.019C10.0406 21.019 7.70376 19.8339 7.70376 19.0217C7.7027 18.2345 7.85679 17.4547 8.15723 16.727C8.45767 15.9994 8.89856 15.338 9.45471 14.7808C9.57871 14.6561 9.64831 14.4873 9.64831 14.3115C9.64831 14.1356 9.57871 13.9668 9.45471 13.8421C9.32997 13.7181 9.16123 13.6485 8.98535 13.6485C8.80946 13.6485 8.64072 13.7181 8.51598 13.8421C7.83365 14.5206 7.2928 15.3279 6.92481 16.217C6.55681 17.1061 6.36899 18.0595 6.37223 19.0217C6.37223 21.1854 10.1471 22.3505 13.6956 22.3505C17.2441 22.3505 21.019 21.1854 21.019 19.0217C21.0215 18.0532 20.8309 17.0939 20.4582 16.2C20.0856 15.306 19.5383 14.4954 18.8486 13.8155V13.8155Z" fill="#6E55D0"/>
<path d="M13.6956 14.3614C14.6173 14.3614 15.5184 14.0881 16.2847 13.576C17.0511 13.0639 17.6485 12.336 18.0012 11.4845C18.3539 10.6329 18.4462 9.69588 18.2664 8.79187C18.0866 7.88785 17.6427 7.05746 16.991 6.40571C16.3392 5.75395 15.5088 5.31009 14.6048 5.13027C13.7008 4.95045 12.7637 5.04274 11.9122 5.39547C11.0606 5.7482 10.3328 6.34553 9.82068 7.11192C9.3086 7.8783 9.03528 8.77933 9.03528 9.70105C9.03528 10.937 9.52628 12.1224 10.4003 12.9964C11.2742 13.8704 12.4596 14.3614 13.6956 14.3614ZM13.6956 6.37225C14.354 6.37225 14.9976 6.56748 15.545 6.93325C16.0924 7.29903 16.5191 7.81892 16.771 8.42718C17.023 9.03543 17.0889 9.70475 16.9604 10.3505C16.832 10.9962 16.515 11.5893 16.0494 12.0549C15.5839 12.5204 14.9907 12.8375 14.345 12.9659C13.6993 13.0943 13.03 13.0284 12.4217 12.7765C11.8135 12.5245 11.2936 12.0979 10.9278 11.5504C10.562 11.003 10.3668 10.3594 10.3668 9.70105C10.3668 8.8182 10.7175 7.97151 11.3418 7.34723C11.9661 6.72296 12.8128 6.37225 13.6956 6.37225V6.37225Z" fill="#6E55D0"/>
</svg>
